<svg xmlns="http://www.w3.org/2000/svg">
    <symbol id="money" viewBox="0 0 48 48">
        <rect width="48" height="48" fill="none"/>
        <path d="M34.3,20.1h0a6.7,6.7,0,0,1-4.1-1.3,2,2,0,0,0-2.8.6,1.8,1.8,0,0,0,.3,2.6A10.9,10.9,0,0,0,32,23.8V26a2,2,0,0,0,4,0V23.8a6.3,6.3,0,0,0,3-1.3,4.9,4.9,0,0,0,2-4h0c0-3.7-3.4-4.9-6.3-5.5s-3.5-1.3-3.5-1.8.2-.6.5-.9a3.4,3.4,0,0,1,1.8-.4,6.3,6.3,0,0,1,3.3.9,1.8,1.8,0,0,0,2.7-.5,1.9,1.9,0,0,0-.4-2.8A9.1,9.1,0,0,0,36,6.3V4a2,2,0,0,0-4,0V6.2c-3,.5-5,2.5-5,5.2s3.3,4.9,6.5,5.5,3.3,1.3,3.3,1.8S35.7,20.1,34.3,20.1Z"/>
        <path d="M42.2,31.7a5.2,5.2,0,0,0-4-1.1l-9.9,1.8a4.5,4.5,0,0,0-1.4-3.3L19.8,22H5a2,2,0,0,0-2,2v9a2,2,0,0,0,2,2H8.3l11.2,9.1,20.4-3.7a5,5,0,0,0,2.3-8.7Zm-3,4.8L20.5,39.9,10,31.2V26h8.2l5.9,5.9a.8.8,0,0,1-1.2,1.2l-3.5-3.5a2,2,0,0,0-2.8,2.8l3.5,3.5a4.5,4.5,0,0,0,3.4,1.4,5.7,5.7,0,0,0,1.8-.3h0l13.6-2.4a1.1,1.1,0,0,1,.8.2.9.9,0,0,1,.3.7A1,1,0,0,1,39.2,36.5Z"/>
    </symbol>
    <symbol id="time" viewBox="0 0 24 24">
        <path d="M9,24H1a1,1,0,0,1,0-2H9a1,1,0,0,1,0,2Z M7,20H1a1,1,0,0,1,0-2H7a1,1,0,0,1,0,2Z M5,16H1a1,1,0,0,1,0-2H5a1,1,0,0,1,0,2Z M13,23.955a1,1,0,0,1-.089-2A10,10,0,1,0,2.041,11.09a1,1,0,0,1-1.992-.18A12,12,0,0,1,24,12,11.934,11.934,0,0,1,13.09,23.951C13.06,23.954,13.029,23.955,13,23.955Z M12,6a1,1,0,0,0-1,1v5a1,1,0,0,0,.293.707l3,3a1,1,0,0,0,1.414-1.414L13,11.586V7A1,1,0,0,0,12,6Z"/>
    </symbol>
    <symbol id="help" viewBox="0 0 24 24">
        <path d="M10.1907 18.5V17.1736H8.13445C7.29051 17.1052 6.48827 16.7892 5.83501 16.2677C5.18175 15.7462 4.70862 15.0441 4.47891 14.2554L4.28471 13.9016H3.88489C3.71759 13.8803 3.56365 13.8019 3.45079 13.6806C3.34793 13.5546 3.29163 13.399 3.29086 13.2384C3.29126 13.1221 3.32274 13.0079 3.38225 12.9068C3.44157 12.8051 3.52847 12.721 3.63357 12.6636L3.97627 12.4757V11.2156C3.99031 11.1228 4.0252 11.0342 4.0785 10.9559C4.13179 10.8776 4.20218 10.8115 4.28471 10.7624C4.34794 10.702 4.42288 10.6543 4.50522 10.6221C4.58756 10.5898 4.67567 10.5737 4.7645 10.5745H11.6186C11.7095 10.5714 11.8001 10.5864 11.8847 10.6187C11.9693 10.6509 12.0461 10.6996 12.1104 10.7619C12.1747 10.8241 12.2251 10.8984 12.2584 10.9803C12.2917 11.0622 12.3072 11.1498 12.304 11.2377V14.5538H9.44815C9.38334 14.385 9.27287 14.2361 9.12829 14.1227C8.98921 14.0059 8.819 13.9293 8.63708 13.9016C8.45145 13.88 8.26316 13.9028 8.08875 13.968C7.91684 14.035 7.76685 14.1458 7.65466 14.2885C7.54539 14.4305 7.47824 14.5987 7.46046 14.7749C7.43553 14.9519 7.46327 15.1321 7.54042 15.2944C7.61569 15.4607 7.73858 15.6026 7.89455 15.7034C8.0455 15.8076 8.22356 15.8689 8.40861 15.8803H13.6292C13.9918 15.8774 14.3388 15.7367 14.5952 15.4886C14.8516 15.2404 14.997 14.9047 15 14.5538V13.2274C15.0002 13.0521 14.9639 12.8785 14.8933 12.7171C14.8226 12.5556 14.719 12.4096 14.5888 12.2878C14.464 12.1641 14.3147 12.066 14.1498 11.9995C13.9849 11.933 13.8078 11.8995 13.6292 11.9009V10.5745C13.5647 9.20775 12.9583 7.91766 11.9359 6.97253C10.9136 6.02741 9.55409 5.5 8.14016 5.5C6.72623 5.5 5.36672 6.02741 4.34439 6.97253C3.32206 7.91766 2.7156 9.20775 2.65114 10.5745V11.8678C2.26166 12.214 2.02791 12.6942 2 13.2053C2.00247 13.6047 2.13876 13.9925 2.3884 14.3106C2.62582 14.6192 2.95148 14.8536 3.32513 14.9849C3.68436 15.9613 4.33125 16.8145 5.18592 17.4392C6.04059 18.0638 7.06562 18.4326 8.13445 18.5H10.1907Z" />
        <path d="M16 2H8C7.46957 2 6.96086 2.21071 6.58579 2.58579C6.21071 2.96086 6 3.46957 6 4H15V9H20V20H6C6 20.5304 6.21071 21.0391 6.58579 21.4142C6.96086 21.7893 7.46957 22 8 22H20C20.5304 22 21.0391 21.7893 21.4142 21.4142C21.7893 21.0391 22 20.5304 22 20V8L16 2Z" />
    </symbol>
    <symbol id="frends" viewBox="0 0 24 24">
        <path d="M18 7.16C17.94 7.15 17.87 7.15 17.81 7.16C16.43 7.11 15.33 5.98 15.33 4.58C15.33 3.15 16.48 2 17.91 2C19.34 2 20.49 3.16 20.49 4.58C20.48 5.98 19.38 7.11 18 7.16Z" stroke="#292D32" stroke-width="1.5" stroke-linecap="round" stroke-linejoin="round"/>
        <path d="M16.9699 14.44C18.3399 14.67 19.8499 14.43 20.9099 13.72C22.3199 12.78 22.3199 11.24 20.9099 10.3C19.8399 9.59004 18.3099 9.35003 16.9399 9.59003" stroke="#292D32" stroke-width="1.5" stroke-linecap="round" stroke-linejoin="round"/>
        <path d="M5.96998 7.16C6.02998 7.15 6.09998 7.15 6.15998 7.16C7.53998 7.11 8.63998 5.98 8.63998 4.58C8.63998 3.15 7.48998 2 6.05998 2C4.62998 2 3.47998 3.16 3.47998 4.58C3.48998 5.98 4.58998 7.11 5.96998 7.16Z" stroke="#292D32" stroke-width="1.5" stroke-linecap="round" stroke-linejoin="round"/>
        <path d="M6.99994 14.44C5.62994 14.67 4.11994 14.43 3.05994 13.72C1.64994 12.78 1.64994 11.24 3.05994 10.3C4.12994 9.59004 5.65994 9.35003 7.02994 9.59003" stroke="#292D32" stroke-width="1.5" stroke-linecap="round" stroke-linejoin="round"/>
        <path d="M12 14.63C11.94 14.62 11.87 14.62 11.81 14.63C10.43 14.58 9.32996 13.45 9.32996 12.05C9.32996 10.62 10.48 9.46997 11.91 9.46997C13.34 9.46997 14.49 10.63 14.49 12.05C14.48 13.45 13.38 14.59 12 14.63Z" stroke="#292D32" stroke-width="1.5" stroke-linecap="round" stroke-linejoin="round"/>
        <path d="M9.08997 17.78C7.67997 18.72 7.67997 20.26 9.08997 21.2C10.69 22.27 13.31 22.27 14.91 21.2C16.32 20.26 16.32 18.72 14.91 17.78C13.32 16.72 10.69 16.72 9.08997 17.78Z" stroke="#292D32" stroke-width="1.5" stroke-linecap="round" stroke-linejoin="round"/>
    </symbol>
    <symbol id="choice" viewBox="0 0 421 421">
        <g>
        	<rect x="178.902" y="110.08" width="116.533" height="15"/>
        	<rect x="178.902" y="147.596" width="116.533" height="15"/>
        	<rect x="178.902" y="222.628" width="116.533" height="15"/>
        	<rect x="177.862" y="297.661" width="116.533" height="15"/>
        	<rect x="177.862" y="260.145" width="116.533" height="15"/>
        	<rect x="177.862" y="185.112" width="116.533" height="15"/>
        	<rect x="178.902" y="335.177" width="116.533" height="15"/>
        	<path d="M285.325,27.235V0h-149.63v27.235H57.156v393.786h306.709V27.235H285.325z M285.325,89.063V75.978h31.43v296.302H104.266
        		V75.978h31.43v13.085H285.325z M150.695,15h119.63v59.063h-119.63V15z M348.865,406.021H72.156V42.235h63.539v18.742h-46.43
        		v326.302h242.489V60.978h-46.43V42.235h63.54V406.021z"/>
        	<rect x="174.047" y="37.031" width="72.928" height="15"/>
        	<polygon points="112.97,129.99 137.365,154.386 169.539,122.212 158.932,111.606 137.365,133.172 123.577,119.384 	"/>
        	<polygon points="137.365,228.672 123.577,214.884 112.97,225.49 137.365,249.886 169.539,217.712 158.932,207.106 	"/>
        	<polygon points="156.104,297.289 141.254,312.138 126.405,297.289 115.799,307.895 130.648,322.745 115.799,337.594 126.405,348.2 
        		141.254,333.351 156.104,348.2 166.71,337.594 151.861,322.745 166.71,307.895 	"/>
        </g>
    </symbol>
    <symbol id="add" viewBox="0 0 367 367">
        <g>
        	<path d="M160.937,197.203c24.125,0,80.846-29.033,80.846-98.603c0-9.705-0.236-19.081-1.037-27.94
        		c-1.313-17.427-4.883-32.872-13.768-44.71C215.578,9.838,195.629,0,160.937,0c-34.68,0-54.628,9.833-66.029,25.937
        		C86.012,37.778,82.44,53.231,81.127,70.669c-0.799,8.856-1.035,18.229-1.035,27.932C80.092,168.17,136.812,197.203,160.937,197.203
        		z M187.328,36.123c-2.355,5.951-3.535,8.926-5.891,14.877c-15.209-4.297-25.791-4.297-41,0c-2.355-5.951-3.533-8.926-5.891-14.877
        		C153.566,30.365,168.308,30.365,187.328,36.123z M92.119,83.517c0.932,2.037,4.889,9.869,11.014,10.604
        		c7.041,0.844,18.729-24.936,57.805-24.998c39.076,0.063,50.764,25.842,57.805,24.998c6.125-0.735,10.082-8.567,11.014-10.604
        		c0.189,4.992,0.259,10.046,0.259,15.084c0,34.006-15.015,55.076-27.612,66.763c-15.871,14.726-33.492,20.071-41.465,20.071
        		c-7.973,0-25.594-5.345-41.465-20.071c-12.598-11.687-27.612-32.757-27.612-66.763C91.86,93.562,91.93,88.509,92.119,83.517z"/>
        	<path d="M232.705,211.768c2.605-2.606,5.371-4.994,8.26-7.181c-11.223-6.117-22.109-11.933-29.153-15.697l-0.331-0.177
        		c-1.982-1.059-4.403-0.847-6.169,0.541c-9.085,7.132-19.035,11.938-29.574,14.283c-1.861,0.414-3.391,1.738-4.066,3.521
        		l-10.734,28.291l-10.734-28.291c-0.675-1.783-2.204-3.106-4.066-3.521c-10.539-2.346-20.489-7.152-29.573-14.283
        		c-1.769-1.388-4.188-1.601-6.17-0.541c-17.138,9.158-58.25,31.302-69.829,39.106c-19.621,13.219-28.199,61.053-29.72,70.508
        		c-0.15,0.938-0.064,1.898,0.253,2.793c0.703,1.982,18.709,48.548,149.84,48.548c5.933,0,11.627-0.098,17.105-0.28
        		c0.481-6.064,3.029-11.993,7.657-16.622l31.512-31.511C203.113,271.581,208.833,235.64,232.705,211.768z"/>
        	<path d="M336.396,219.546c-12.79-12.79-29.821-19.834-47.957-19.834c-18.135,0-35.166,7.044-47.955,19.834
        		c-21.512,21.511-26.052,54.982-11.04,81.396l1.317,2.319l-37.284,37.284c-6.042,6.043-6.041,15.876,0.002,21.92
        		c2.927,2.927,6.819,4.539,10.958,4.539c4.142,0,8.033-1.612,10.96-4.54l37.285-37.283l2.317,1.315
        		c10.126,5.748,21.698,8.787,33.464,8.787c18.127,0,35.149-7.04,47.933-19.824c12.791-12.79,19.835-29.822,19.835-47.957
        		C356.231,249.367,349.187,232.336,336.396,219.546z M319.779,298.842c-8.357,8.358-19.488,12.962-31.339,12.962
        		c-11.851,0-22.982-4.603-31.341-12.962c-17.281-17.281-17.281-45.399,0-62.68c8.359-8.359,19.49-12.962,31.341-12.962
        		c11.851,0,22.981,4.604,31.339,12.963c8.359,8.358,12.963,19.488,12.963,31.339S328.138,290.483,319.779,298.842z"/>
        </g>
    </symbol>
</svg>